<svg xmlns="http://www.w3.org/2000/svg" xmlns:xlink="http://www.w3.org/1999/xlink" width="322" zoomAndPan="magnify" viewBox="7.15 5.9 172 45.35" height="85" preserveAspectRatio="xMidYMid meet" version="1.0"><defs><g/></defs><g fill="#7633f6" fill-opacity="1"><g transform="translate(11.325485, 25.001952)"><g><path d="M 9.390625 0.265625 C 12.128906 0.285156 14.238281 -0.191406 15.71875 -1.171875 C 17.195312 -2.160156 17.9375 -3.582031 17.9375 -5.4375 C 17.9375 -6.46875 17.660156 -7.328125 17.109375 -8.015625 C 16.554688 -8.710938 15.847656 -9.28125 14.984375 -9.71875 C 14.117188 -10.164062 13.191406 -10.53125 12.203125 -10.8125 C 11.210938 -11.101562 10.285156 -11.34375 9.421875 -11.53125 C 8.566406 -11.726562 7.859375 -11.929688 7.296875 -12.140625 C 6.742188 -12.359375 6.46875 -12.625 6.46875 -12.9375 C 6.46875 -13.757812 7.40625 -14.171875 9.28125 -14.171875 C 11.007812 -14.171875 12.109375 -13.414062 12.578125 -11.90625 L 17.453125 -13.234375 C 16.960938 -15.015625 16.007812 -16.382812 14.59375 -17.34375 C 13.175781 -18.3125 11.40625 -18.796875 9.28125 -18.796875 C 6.539062 -18.796875 4.429688 -18.300781 2.953125 -17.3125 C 1.472656 -16.320312 0.734375 -14.914062 0.734375 -13.09375 C 0.734375 -12.0625 1.007812 -11.203125 1.5625 -10.515625 C 2.125 -9.835938 2.84375 -9.285156 3.71875 -8.859375 C 4.59375 -8.429688 5.515625 -8.078125 6.484375 -7.796875 C 7.460938 -7.523438 8.390625 -7.289062 9.265625 -7.09375 C 10.140625 -6.90625 10.851562 -6.695312 11.40625 -6.46875 C 11.96875 -6.25 12.25 -5.953125 12.25 -5.578125 C 12.25 -5.210938 12 -4.929688 11.5 -4.734375 C 11.007812 -4.535156 10.304688 -4.4375 9.390625 -4.4375 C 7.691406 -4.4375 6.609375 -5.148438 6.140625 -6.578125 L 1.21875 -5.25 C 1.738281 -3.476562 2.707031 -2.109375 4.125 -1.140625 C 5.539062 -0.179688 7.296875 0.285156 9.390625 0.265625 Z M 9.390625 0.265625 "/></g></g></g><g fill="#7633f6" fill-opacity="1"><g transform="translate(30.188632, 25.001952)"><g><path d="M 1.21875 -18.5 L 7.21875 -18.5 L 7.21875 -8.328125 C 7.21875 -7.234375 7.394531 -6.390625 7.75 -5.796875 C 8.101562 -5.210938 8.613281 -4.921875 9.28125 -4.921875 C 9.925781 -4.921875 10.421875 -5.210938 10.765625 -5.796875 C 11.109375 -6.390625 11.28125 -7.234375 11.28125 -8.328125 L 11.28125 -18.5 L 17.3125 -18.5 L 17.3125 -8.328125 C 17.3125 -5.585938 16.609375 -3.460938 15.203125 -1.953125 C 13.796875 -0.453125 11.8125 0.296875 9.25 0.296875 C 6.6875 0.296875 4.707031 -0.453125 3.3125 -1.953125 C 1.914062 -3.460938 1.21875 -5.585938 1.21875 -8.328125 Z M 1.21875 -18.5 "/></g></g></g><g fill="#7633f6" fill-opacity="1"><g transform="translate(48.681915, 25.001952)"><g><path d="M 21.5625 0 L 15.53125 0 L 15.53125 -7.4375 L 12.578125 -2 L 10.203125 -2 L 7.21875 -7.4375 L 7.21875 0 L 1.21875 0 L 1.21875 -18.5 L 6.578125 -18.5 L 11.390625 -8.84375 L 16.203125 -18.5 L 21.5625 -18.5 Z M 21.5625 0 "/></g></g></g><g fill="#7633f6" fill-opacity="1"><g transform="translate(71.428652, 25.001952)"><g><path d="M 21.5625 0 L 15.53125 0 L 15.53125 -7.4375 L 12.578125 -2 L 10.203125 -2 L 7.21875 -7.4375 L 7.21875 0 L 1.21875 0 L 1.21875 -18.5 L 6.578125 -18.5 L 11.390625 -8.84375 L 16.203125 -18.5 L 21.5625 -18.5 Z M 21.5625 0 "/></g></g></g><g fill="#7633f6" fill-opacity="1"><g transform="translate(94.175389, 25.001952)"><g><path d="M 7.21875 -13.875 L 7.21875 -11.46875 L 15.390625 -11.46875 L 15.390625 -7.03125 L 7.21875 -7.03125 L 7.21875 -4.625 L 15.390625 -4.625 L 15.390625 0 L 1.21875 0 L 1.21875 -18.5 L 15.390625 -18.5 L 15.390625 -13.875 Z M 7.21875 -13.875 "/></g></g></g><g fill="#7633f6" fill-opacity="1"><g transform="translate(110.782358, 25.001952)"><g><path d="M 15.203125 -7.984375 C 16.535156 -6.929688 17.203125 -5.28125 17.203125 -3.03125 L 17.203125 0 L 11.71875 0 L 11.71875 -3.8125 C 11.71875 -5.4375 10.957031 -6.382812 9.4375 -6.65625 L 7.21875 -6.65625 L 7.21875 0 L 1.21875 0 L 1.21875 -18.5 L 10.984375 -18.5 C 13.003906 -18.5 14.5625 -17.984375 15.65625 -16.953125 C 16.757812 -15.929688 17.3125 -14.472656 17.3125 -12.578125 C 17.3125 -10.503906 16.609375 -8.972656 15.203125 -7.984375 Z M 10.171875 -11.09375 C 11.359375 -11.09375 11.953125 -11.550781 11.953125 -12.46875 C 11.953125 -13.40625 11.359375 -13.875 10.171875 -13.875 L 7.21875 -13.875 L 7.21875 -11.09375 Z M 10.171875 -11.09375 "/></g></g></g><g fill="#7633f6" fill-opacity="1"><g transform="translate(11.325485, 50.402341)"><g/></g></g><g fill="#7633f6" fill-opacity="1"><g transform="translate(15.896719, 50.402341)"><g/></g></g><g fill="#7633f6" fill-opacity="1"><g transform="translate(20.467953, 50.402341)"><g/></g></g><g fill="#7633f6" fill-opacity="1"><g transform="translate(25.039187, 50.402341)"><g/></g></g><g fill="#7633f6" fill-opacity="1"><g transform="translate(29.610421, 50.402341)"><g/></g></g><g fill="#7633f6" fill-opacity="1"><g transform="translate(34.181655, 50.402341)"><g/></g></g><g fill="#7633f6" fill-opacity="1"><g transform="translate(38.75289, 50.402341)"><g/></g></g><g fill="#7633f6" fill-opacity="1"><g transform="translate(43.324124, 50.402341)"><g/></g></g><g fill="#7633f6" fill-opacity="1"><g transform="translate(47.895358, 50.402341)"><g/></g></g><g fill="#7633f6" fill-opacity="1"><g transform="translate(52.466592, 50.402341)"><g/></g></g><g fill="#7633f6" fill-opacity="1"><g transform="translate(57.037826, 50.402341)"><g/></g></g><g fill="#7633f6" fill-opacity="1"><g transform="translate(61.60906, 50.402341)"><g/></g></g><g fill="#7633f6" fill-opacity="1"><g transform="translate(66.188456, 50.402341)"><g/></g></g><g fill="#7633f6" fill-opacity="1"><g transform="translate(70.764261, 50.402341)"><g><path d="M 9.4375 0.265625 C 12.1875 0.285156 14.300781 -0.195312 15.78125 -1.1875 C 17.269531 -2.175781 18.015625 -3.597656 18.015625 -5.453125 C 18.015625 -6.492188 17.734375 -7.359375 17.171875 -8.046875 C 16.617188 -8.742188 15.910156 -9.316406 15.046875 -9.765625 C 14.179688 -10.210938 13.25 -10.578125 12.25 -10.859375 C 11.257812 -11.148438 10.332031 -11.394531 9.46875 -11.59375 C 8.601562 -11.789062 7.890625 -11.992188 7.328125 -12.203125 C 6.773438 -12.410156 6.5 -12.675781 6.5 -13 C 6.5 -13.8125 7.441406 -14.21875 9.328125 -14.21875 C 11.054688 -14.21875 12.15625 -13.460938 12.625 -11.953125 L 17.53125 -13.296875 C 17.03125 -15.078125 16.066406 -16.453125 14.640625 -17.421875 C 13.222656 -18.390625 11.453125 -18.875 9.328125 -18.875 C 6.578125 -18.875 4.457031 -18.375 2.96875 -17.375 C 1.488281 -16.382812 0.75 -14.976562 0.75 -13.15625 C 0.75 -12.113281 1.023438 -11.25 1.578125 -10.5625 C 2.140625 -9.882812 2.859375 -9.328125 3.734375 -8.890625 C 4.609375 -8.460938 5.535156 -8.109375 6.515625 -7.828125 C 7.492188 -7.554688 8.421875 -7.320312 9.296875 -7.125 C 10.179688 -6.925781 10.898438 -6.71875 11.453125 -6.5 C 12.015625 -6.28125 12.296875 -5.984375 12.296875 -5.609375 C 12.296875 -5.234375 12.046875 -4.945312 11.546875 -4.75 C 11.054688 -4.550781 10.351562 -4.453125 9.4375 -4.453125 C 7.726562 -4.453125 6.640625 -5.171875 6.171875 -6.609375 L 1.21875 -5.28125 C 1.738281 -3.488281 2.710938 -2.109375 4.140625 -1.140625 C 5.566406 -0.179688 7.332031 0.285156 9.4375 0.265625 Z M 9.4375 0.265625 "/></g></g></g><g fill="#7633f6" fill-opacity="1"><g transform="translate(89.261763, 50.402341)"><g><path d="M 11.703125 -7.765625 C 11.429688 -5.878906 10.660156 -4.9375 9.390625 -4.9375 C 8.628906 -4.9375 8.03125 -5.3125 7.59375 -6.0625 C 7.164062 -6.820312 6.953125 -7.894531 6.953125 -9.28125 C 6.953125 -10.695312 7.164062 -11.78125 7.59375 -12.53125 C 8.03125 -13.289062 8.628906 -13.671875 9.390625 -13.671875 C 9.960938 -13.671875 10.453125 -13.421875 10.859375 -12.921875 C 11.273438 -12.429688 11.554688 -11.726562 11.703125 -10.8125 L 17.53125 -11.734375 C 17.0625 -14.015625 16.117188 -15.773438 14.703125 -17.015625 C 13.296875 -18.253906 11.515625 -18.875 9.359375 -18.875 C 6.679688 -18.875 4.617188 -18.039062 3.171875 -16.375 C 1.722656 -14.71875 1 -12.351562 1 -9.28125 C 1 -6.238281 1.722656 -3.878906 3.171875 -2.203125 C 4.617188 -0.535156 6.679688 0.296875 9.359375 0.296875 C 11.515625 0.296875 13.296875 -0.328125 14.703125 -1.578125 C 16.117188 -2.828125 17.0625 -4.578125 17.53125 -6.828125 Z M 11.703125 -7.765625 "/></g></g></g><g fill="#7633f6" fill-opacity="1"><g transform="translate(107.313627, 50.402341)"><g><path d="M 17.375 -18.578125 L 17.375 0 L 11.328125 0 L 11.328125 -6.6875 L 7.25 -6.6875 L 7.25 0 L 1.21875 0 L 1.21875 -18.578125 L 7.25 -18.578125 L 7.25 -11.890625 L 11.328125 -11.890625 L 11.328125 -18.578125 Z M 17.375 -18.578125 "/></g></g></g><g fill="#7633f6" fill-opacity="1"><g transform="translate(125.43977, 50.402341)"><g><path d="M 9.734375 0.296875 C 6.960938 0.296875 4.8125 -0.535156 3.28125 -2.203125 C 1.757812 -3.878906 1 -6.238281 1 -9.28125 C 1 -12.351562 1.757812 -14.71875 3.28125 -16.375 C 4.8125 -18.039062 6.960938 -18.875 9.734375 -18.875 C 12.523438 -18.875 14.675781 -18.039062 16.1875 -16.375 C 17.695312 -14.71875 18.453125 -12.351562 18.453125 -9.28125 C 18.453125 -6.238281 17.695312 -3.878906 16.1875 -2.203125 C 14.675781 -0.535156 12.523438 0.296875 9.734375 0.296875 Z M 9.734375 -4.9375 C 10.597656 -4.9375 11.269531 -5.3125 11.75 -6.0625 C 12.238281 -6.820312 12.492188 -7.894531 12.515625 -9.28125 C 12.492188 -10.695312 12.238281 -11.78125 11.75 -12.53125 C 11.269531 -13.289062 10.597656 -13.671875 9.734375 -13.671875 C 8.835938 -13.671875 8.148438 -13.289062 7.671875 -12.53125 C 7.191406 -11.78125 6.953125 -10.695312 6.953125 -9.28125 C 6.953125 -7.894531 7.191406 -6.820312 7.671875 -6.0625 C 8.148438 -5.3125 8.835938 -4.9375 9.734375 -4.9375 Z M 9.734375 -4.9375 "/></g></g></g><g fill="#7633f6" fill-opacity="1"><g transform="translate(144.420058, 50.402341)"><g><path d="M 9.734375 0.296875 C 6.960938 0.296875 4.8125 -0.535156 3.28125 -2.203125 C 1.757812 -3.878906 1 -6.238281 1 -9.28125 C 1 -12.351562 1.757812 -14.71875 3.28125 -16.375 C 4.8125 -18.039062 6.960938 -18.875 9.734375 -18.875 C 12.523438 -18.875 14.675781 -18.039062 16.1875 -16.375 C 17.695312 -14.71875 18.453125 -12.351562 18.453125 -9.28125 C 18.453125 -6.238281 17.695312 -3.878906 16.1875 -2.203125 C 14.675781 -0.535156 12.523438 0.296875 9.734375 0.296875 Z M 9.734375 -4.9375 C 10.597656 -4.9375 11.269531 -5.3125 11.75 -6.0625 C 12.238281 -6.820312 12.492188 -7.894531 12.515625 -9.28125 C 12.492188 -10.695312 12.238281 -11.78125 11.75 -12.53125 C 11.269531 -13.289062 10.597656 -13.671875 9.734375 -13.671875 C 8.835938 -13.671875 8.148438 -13.289062 7.671875 -12.53125 C 7.191406 -11.78125 6.953125 -10.695312 6.953125 -9.28125 C 6.953125 -7.894531 7.191406 -6.820312 7.671875 -6.0625 C 8.148438 -5.3125 8.835938 -4.9375 9.734375 -4.9375 Z M 9.734375 -4.9375 "/></g></g></g><g fill="#7633f6" fill-opacity="1"><g transform="translate(163.400346, 50.402341)"><g><path d="M 15.453125 -5.203125 L 15.453125 0 L 1.21875 0 L 1.21875 -18.578125 L 7.25 -18.578125 L 7.25 -5.203125 Z M 15.453125 -5.203125 "/></g></g></g><g fill="#7633f6" fill-opacity="1"><g transform="translate(7.340659, 49.716506)"><g><path d="M 8.105469 -9.71875 L 8.105469 -8.449219 C 8.105469 -7.523438 8.242188 -6.859375 8.507812 -6.457031 C 8.695312 -6.175781 8.996094 -6.03125 9.410156 -6.03125 C 9.757812 -6.03125 10.015625 -6.164062 10.179688 -6.429688 C 10.433594 -6.839844 10.558594 -7.511719 10.558594 -8.449219 L 10.558594 -20.128906 L 18.671875 -20.128906 L 18.671875 -8.449219 C 18.671875 -5.410156 17.855469 -3.039062 16.222656 -1.339844 C 14.582031 0.375 12.296875 1.230469 9.371094 1.230469 C 6.445312 1.230469 4.164062 0.375 2.535156 -1.339844 C 0.921875 -3.042969 0.113281 -5.414062 0.113281 -8.449219 L 0.113281 -9.203125 L 8.105469 -10.851562 Z M 6.257812 -9.71875 L 7.183594 -9.71875 L 7.371094 -8.8125 L 1.222656 -7.542969 L 1.035156 -8.449219 L 1.960938 -8.449219 C 1.960938 -5.90625 2.601562 -3.960938 3.878906 -2.613281 C 5.140625 -1.28125 6.972656 -0.617188 9.371094 -0.617188 C 11.773438 -0.617188 13.609375 -1.285156 14.886719 -2.617188 C 16.175781 -3.960938 16.820312 -5.90625 16.820312 -8.449219 L 16.820312 -19.203125 L 17.746094 -19.203125 L 17.746094 -18.28125 L 11.484375 -18.28125 L 11.484375 -19.203125 L 12.410156 -19.203125 L 12.410156 -8.449219 C 12.410156 -7.160156 12.191406 -6.164062 11.75 -5.457031 C 11.226562 -4.609375 10.445312 -4.183594 9.410156 -4.183594 C 8.339844 -4.183594 7.523438 -4.601562 6.96875 -5.429688 C 6.496094 -6.144531 6.257812 -7.148438 6.257812 -8.449219 Z M 6.257812 -9.71875 "/></g></g></g><g fill="#7633f6" fill-opacity="1"><g transform="translate(24.99872, 49.716506)"><g><path d="M 13.789062 -1.878906 L 7.335938 -1.878906 L 7.335938 -2.804688 L 8.203125 -2.484375 L 6.941406 0.925781 L -1.0625 0.925781 L 6.808594 -20.128906 L 14.394531 -20.128906 L 22.183594 0.925781 L 14.136719 0.925781 L 12.917969 -2.492188 L 13.789062 -2.804688 Z M 14.441406 -3.726562 L 15.660156 -0.308594 L 14.789062 0 L 14.789062 -0.925781 L 20.855469 -0.925781 L 20.855469 0 L 19.988281 0.320312 L 12.882812 -18.882812 L 13.75 -19.203125 L 13.75 -18.28125 L 7.453125 -18.28125 L 7.453125 -19.203125 L 8.316406 -18.882812 L 1.136719 0.324219 L 0.269531 0 L 0.269531 -0.925781 L 6.300781 -0.925781 L 6.300781 0 L 5.433594 -0.320312 L 6.691406 -3.726562 Z M 11.210938 -7.160156 L 9.710938 -12.421875 L 10.601562 -12.675781 L 11.488281 -12.410156 L 9.910156 -7.148438 L 9.027344 -7.414062 L 9.027344 -8.335938 L 12.097656 -8.335938 L 12.097656 -7.414062 Z M 13.324219 -6.488281 L 7.785156 -6.488281 L 10.625 -15.972656 L 12.988281 -7.667969 Z M 13.324219 -6.488281 "/></g></g></g><g fill="#7633f6" fill-opacity="1"><g transform="translate(46.382215, 49.716506)"><g><path d="M 22.394531 0.925781 L 15.207031 0.925781 L 15.207031 -7.71875 L 16.132812 -7.71875 L 16.945312 -7.277344 L 13.609375 -1.148438 L 10.054688 -1.148438 L 6.679688 -7.273438 L 7.488281 -7.71875 L 8.414062 -7.71875 L 8.414062 0.925781 L 0.34375 0.925781 L 0.34375 -20.128906 L 7.410156 -20.128906 L 12.65625 -9.59375 L 11.832031 -9.179688 L 11.003906 -9.59375 L 16.25 -20.128906 L 23.316406 -20.128906 L 23.316406 0.925781 Z M 22.394531 -0.925781 L 22.394531 0 L 21.46875 0 L 21.46875 -19.203125 L 22.394531 -19.203125 L 22.394531 -18.28125 L 16.824219 -18.28125 L 16.824219 -19.203125 L 17.652344 -18.792969 L 11.832031 -7.105469 L 6.007812 -18.792969 L 6.835938 -19.203125 L 6.835938 -18.28125 L 1.265625 -18.28125 L 1.265625 -19.203125 L 2.191406 -19.203125 L 2.191406 0 L 1.265625 0 L 1.265625 -0.925781 L 7.488281 -0.925781 L 7.488281 0 L 6.566406 0 L 6.566406 -7.71875 L 8.300781 -8.167969 L 11.410156 -2.519531 L 10.601562 -2.074219 L 10.601562 -3 L 13.058594 -3 L 13.058594 -2.074219 L 12.246094 -2.515625 L 15.320312 -8.164062 L 17.058594 -7.71875 L 17.058594 0 L 16.132812 0 L 16.132812 -0.925781 Z M 22.394531 -0.925781 "/></g></g></g></svg>