<svg xmlns="http://www.w3.org/2000/svg" xmlns:xlink="http://www.w3.org/1999/xlink" width="42" zoomAndPan="magnify" viewBox="0 0 31.5 40.5" height="54" preserveAspectRatio="xMidYMid meet" version="1.0"><defs><clipPath id="6b64260ef5"><path d="M 1.785156 16.371094 L 28.363281 16.371094 L 28.363281 39.257812 L 1.785156 39.257812 Z M 1.785156 16.371094 " clip-rule="nonzero"/></clipPath><clipPath id="1cb9f1dcdb"><path d="M 2 16.371094 L 28 16.371094 L 28 39 L 2 39 Z M 2 16.371094 " clip-rule="nonzero"/></clipPath><clipPath id="a678f1711c"><path d="M 0 0.0703125 L 14 0.0703125 L 14 14 L 0 14 Z M 0 0.0703125 " clip-rule="nonzero"/></clipPath><clipPath id="9f1dcc4b6f"><path d="M 17.234375 0.0703125 L 30.523438 0.0703125 L 30.523438 13.359375 L 17.234375 13.359375 Z M 17.234375 0.0703125 " clip-rule="nonzero"/></clipPath></defs><g clip-path="url(#6b64260ef5)"><path fill="#f27351" d="M 1.679688 25.921875 L 1.679688 16.304688 L 10.589844 16.304688 L 10.589844 25.921875 C 10.589844 26.261719 10.628906 26.601562 10.703125 26.925781 C 10.777344 27.242188 10.886719 27.546875 11.023438 27.839844 C 11.300781 28.414062 11.707031 28.933594 12.203125 29.339844 C 12.535156 29.613281 12.902344 29.835938 13.292969 30.003906 C 13.835938 30.230469 14.417969 30.347656 15.015625 30.347656 C 15.355469 30.347656 15.695312 30.308594 16.019531 30.234375 C 16.332031 30.164062 16.640625 30.054688 16.933594 29.914062 C 17.503906 29.636719 18.023438 29.230469 18.429688 28.738281 C 18.707031 28.40625 18.929688 28.039062 19.09375 27.644531 C 19.324219 27.101562 19.441406 26.523438 19.441406 25.921875 L 19.441406 16.304688 L 28.351562 16.304688 L 28.351562 25.921875 C 28.351562 27.273438 28.148438 28.605469 27.75 29.886719 C 27.367188 31.128906 26.800781 32.304688 26.070312 33.382812 C 24.621094 35.53125 22.589844 37.199219 20.207031 38.210938 C 18.5625 38.90625 16.816406 39.257812 15.019531 39.257812 C 13.664062 39.257812 12.332031 39.058594 11.050781 38.660156 C 9.8125 38.273438 8.636719 37.707031 7.554688 36.980469 C 5.40625 35.527344 3.738281 33.5 2.730469 31.117188 C 2.03125 29.46875 1.679688 27.722656 1.679688 25.921875 Z M 1.679688 25.921875 " fill-opacity="1" fill-rule="nonzero"/></g><g clip-path="url(#1cb9f1dcdb)"><path fill="#f27351" d="M 2.0625 25.921875 L 2.0625 16.6875 L 10.207031 16.6875 L 10.207031 25.921875 C 10.207031 26.304688 10.25 26.667969 10.328125 27.011719 C 10.410156 27.359375 10.527344 27.691406 10.679688 28.007812 C 10.980469 28.632812 11.421875 29.191406 11.957031 29.636719 C 12.316406 29.929688 12.714844 30.175781 13.144531 30.355469 C 13.71875 30.597656 14.339844 30.730469 15.015625 30.734375 C 15.394531 30.730469 15.757812 30.6875 16.105469 30.609375 C 16.453125 30.527344 16.785156 30.410156 17.097656 30.261719 C 17.726562 29.957031 18.285156 29.519531 18.726562 28.980469 C 19.023438 28.621094 19.265625 28.222656 19.449219 27.792969 C 19.691406 27.222656 19.824219 26.597656 19.824219 25.921875 L 19.824219 16.6875 L 27.96875 16.6875 L 27.96875 25.921875 C 27.96875 27.257812 27.765625 28.554688 27.382812 29.773438 C 27.003906 30.992188 26.449219 32.136719 25.753906 33.167969 C 24.359375 35.234375 22.386719 36.871094 20.058594 37.855469 C 18.507812 38.511719 16.792969 38.875 15.015625 38.875 C 13.683594 38.875 12.386719 38.671875 11.164062 38.292969 C 9.945312 37.914062 8.804688 37.359375 7.769531 36.660156 C 5.707031 35.265625 4.070312 33.296875 3.082031 30.964844 C 2.425781 29.414062 2.0625 27.699219 2.0625 25.921875 Z M 2.0625 25.921875 " fill-opacity="1" fill-rule="nonzero"/></g><path fill="#f27351" d="M 2.640625 25.929688 C 2.640625 27.597656 2.96875 29.214844 3.613281 30.742188 C 4.550781 32.953125 6.101562 34.835938 8.09375 36.183594 C 9.09375 36.859375 10.1875 37.382812 11.335938 37.742188 C 12.523438 38.113281 13.761719 38.300781 15.019531 38.300781 C 16.6875 38.300781 18.308594 37.972656 19.832031 37.324219 C 22.046875 36.390625 23.929688 34.839844 25.277344 32.84375 C 25.953125 31.84375 26.476562 30.753906 26.835938 29.601562 C 27.203125 28.414062 27.390625 27.179688 27.390625 25.925781 L 27.390625 17.265625 L 20.402344 17.265625 L 20.402344 25.925781 C 20.398438 26.652344 20.257812 27.355469 19.980469 28.019531 C 19.777344 28.496094 19.503906 28.945312 19.171875 29.347656 C 18.675781 29.949219 18.046875 30.445312 17.347656 30.78125 C 16.992188 30.949219 16.617188 31.082031 16.234375 31.171875 C 15.839844 31.261719 15.429688 31.308594 15.015625 31.308594 C 14.289062 31.308594 13.582031 31.167969 12.921875 30.886719 C 12.441406 30.683594 11.996094 30.414062 11.59375 30.082031 C 10.992188 29.585938 10.496094 28.953125 10.160156 28.257812 C 9.988281 27.902344 9.855469 27.527344 9.769531 27.144531 C 9.675781 26.746094 9.632812 26.335938 9.632812 25.921875 L 9.632812 17.265625 L 2.640625 17.265625 Z M 2.71875 25.921875 L 2.71875 17.339844 L 9.554688 17.339844 L 9.554688 25.921875 C 9.554688 26.34375 9.601562 26.757812 9.695312 27.160156 C 9.785156 27.550781 9.917969 27.929688 10.089844 28.289062 C 10.429688 28.996094 10.933594 29.636719 11.542969 30.140625 C 11.953125 30.476562 12.40625 30.753906 12.890625 30.957031 C 13.5625 31.242188 14.277344 31.386719 15.015625 31.386719 C 15.433594 31.386719 15.851562 31.339844 16.253906 31.246094 C 16.640625 31.15625 17.019531 31.023438 17.382812 30.847656 C 18.089844 30.507812 18.730469 30.003906 19.230469 29.394531 C 19.570312 28.988281 19.84375 28.535156 20.050781 28.046875 C 20.332031 27.375 20.476562 26.660156 20.476562 25.925781 L 20.476562 17.339844 L 27.316406 17.339844 L 27.316406 25.925781 C 27.316406 27.171875 27.128906 28.398438 26.761719 29.578125 C 26.40625 30.722656 25.882812 31.808594 25.210938 32.800781 C 23.871094 34.785156 22.003906 36.324219 19.804688 37.253906 C 18.289062 37.898438 16.679688 38.222656 15.019531 38.222656 C 13.769531 38.222656 12.539062 38.035156 11.359375 37.667969 C 10.214844 37.3125 9.132812 36.792969 8.136719 36.121094 C 6.15625 34.78125 4.617188 32.910156 3.683594 30.710938 C 3.042969 29.195312 2.71875 27.585938 2.71875 25.929688 Z M 2.71875 25.921875 " fill-opacity="1" fill-rule="nonzero"/><g clip-path="url(#a678f1711c)"><path fill="#f27351" d="M 6.882812 0.0703125 C 6.429688 0.0703125 5.980469 0.113281 5.539062 0.203125 C 5.09375 0.289062 4.664062 0.421875 4.246094 0.59375 C 3.832031 0.765625 3.433594 0.980469 3.058594 1.230469 C 2.683594 1.480469 2.335938 1.765625 2.015625 2.085938 C 1.695312 2.40625 1.410156 2.753906 1.160156 3.128906 C 0.910156 3.503906 0.695312 3.902344 0.523438 4.316406 C 0.351562 4.734375 0.21875 5.164062 0.132812 5.609375 C 0.0429688 6.050781 0 6.5 0 6.953125 C 0 7.402344 0.0429688 7.851562 0.132812 8.292969 C 0.21875 8.738281 0.351562 9.167969 0.523438 9.585938 C 0.695312 10.003906 0.910156 10.398438 1.160156 10.773438 C 1.410156 11.148438 1.695312 11.496094 2.015625 11.816406 C 2.335938 12.136719 2.683594 12.421875 3.058594 12.671875 C 3.433594 12.921875 3.832031 13.136719 4.246094 13.308594 C 4.664062 13.480469 5.09375 13.613281 5.539062 13.699219 C 5.980469 13.789062 6.429688 13.832031 6.882812 13.832031 C 7.332031 13.832031 7.78125 13.789062 8.222656 13.699219 C 8.667969 13.613281 9.097656 13.480469 9.515625 13.308594 C 9.933594 13.136719 10.328125 12.921875 10.703125 12.671875 C 11.078125 12.421875 11.425781 12.136719 11.746094 11.816406 C 12.066406 11.496094 12.351562 11.148438 12.601562 10.773438 C 12.851562 10.398438 13.066406 10.003906 13.238281 9.585938 C 13.410156 9.167969 13.542969 8.738281 13.628906 8.292969 C 13.71875 7.851562 13.761719 7.402344 13.761719 6.953125 C 13.761719 6.5 13.71875 6.050781 13.628906 5.609375 C 13.539062 5.167969 13.410156 4.738281 13.234375 4.320312 C 13.0625 3.902344 12.851562 3.503906 12.601562 3.128906 C 12.347656 2.753906 12.0625 2.40625 11.746094 2.089844 C 11.425781 1.769531 11.078125 1.484375 10.703125 1.234375 C 10.328125 0.980469 9.929688 0.769531 9.511719 0.597656 C 9.097656 0.421875 8.664062 0.292969 8.222656 0.203125 C 7.78125 0.117188 7.332031 0.0703125 6.882812 0.0703125 Z M 6.882812 8.328125 C 6.699219 8.328125 6.523438 8.292969 6.355469 8.222656 C 6.1875 8.152344 6.035156 8.054688 5.90625 7.925781 C 5.777344 7.796875 5.679688 7.648438 5.609375 7.476562 C 5.539062 7.308594 5.503906 7.132812 5.503906 6.953125 C 5.503906 6.769531 5.539062 6.59375 5.609375 6.425781 C 5.679688 6.257812 5.777344 6.105469 5.90625 5.976562 C 6.035156 5.847656 6.1875 5.75 6.355469 5.679688 C 6.523438 5.609375 6.699219 5.574219 6.882812 5.574219 C 7.0625 5.574219 7.238281 5.609375 7.40625 5.679688 C 7.578125 5.75 7.726562 5.847656 7.855469 5.976562 C 7.984375 6.105469 8.082031 6.257812 8.152344 6.425781 C 8.222656 6.59375 8.257812 6.769531 8.257812 6.953125 C 8.257812 7.132812 8.222656 7.308594 8.152344 7.476562 C 8.082031 7.644531 7.980469 7.792969 7.851562 7.921875 C 7.722656 8.050781 7.574219 8.152344 7.40625 8.222656 C 7.238281 8.292969 7.0625 8.328125 6.882812 8.328125 Z M 6.882812 8.328125 " fill-opacity="1" fill-rule="nonzero"/></g><g clip-path="url(#9f1dcc4b6f)"><path fill="#f27351" d="M 23.90625 0.0703125 C 23.46875 0.0703125 23.035156 0.113281 22.605469 0.199219 C 22.175781 0.285156 21.757812 0.410156 21.351562 0.578125 C 20.949219 0.746094 20.5625 0.953125 20.199219 1.195312 C 19.835938 1.4375 19.5 1.714844 19.1875 2.023438 C 18.878906 2.335938 18.601562 2.671875 18.359375 3.035156 C 18.113281 3.402344 17.910156 3.785156 17.742188 4.191406 C 17.574219 4.59375 17.449219 5.011719 17.363281 5.441406 C 17.277344 5.871094 17.234375 6.304688 17.234375 6.742188 C 17.234375 7.183594 17.277344 7.617188 17.363281 8.046875 C 17.449219 8.476562 17.574219 8.894531 17.742188 9.296875 C 17.910156 9.703125 18.113281 10.085938 18.359375 10.453125 C 18.601562 10.816406 18.878906 11.152344 19.1875 11.460938 C 19.5 11.773438 19.835938 12.050781 20.199219 12.292969 C 20.5625 12.535156 20.949219 12.742188 21.351562 12.910156 C 21.757812 13.078125 22.175781 13.203125 22.605469 13.289062 C 23.035156 13.375 23.46875 13.417969 23.90625 13.417969 C 24.34375 13.417969 24.777344 13.375 25.207031 13.289062 C 25.640625 13.203125 26.054688 13.078125 26.460938 12.910156 C 26.867188 12.742188 27.25 12.535156 27.613281 12.292969 C 27.980469 12.050781 28.316406 11.773438 28.625 11.460938 C 28.9375 11.152344 29.210938 10.816406 29.457031 10.453125 C 29.699219 10.085938 29.90625 9.703125 30.074219 9.296875 C 30.238281 8.894531 30.367188 8.476562 30.453125 8.046875 C 30.539062 7.617188 30.582031 7.183594 30.582031 6.742188 C 30.578125 6.304688 30.535156 5.871094 30.449219 5.441406 C 30.363281 5.011719 30.238281 4.597656 30.070312 4.191406 C 29.902344 3.785156 29.695312 3.402344 29.453125 3.039062 C 29.210938 2.675781 28.933594 2.335938 28.621094 2.027344 C 28.3125 1.71875 27.976562 1.441406 27.613281 1.199219 C 27.25 0.953125 26.863281 0.75 26.460938 0.582031 C 26.054688 0.414062 25.636719 0.285156 25.207031 0.199219 C 24.777344 0.113281 24.34375 0.0703125 23.90625 0.0703125 Z M 26.8125 7.144531 L 22.863281 9.910156 C 22.699219 10.023438 22.53125 10.035156 22.355469 9.945312 C 22.179688 9.851562 22.09375 9.707031 22.09375 9.511719 L 22.09375 3.976562 C 22.09375 3.777344 22.179688 3.632812 22.355469 3.542969 C 22.53125 3.453125 22.699219 3.464844 22.863281 3.578125 L 26.8125 6.34375 C 26.878906 6.390625 26.929688 6.445312 26.96875 6.519531 C 27.003906 6.589844 27.023438 6.664062 27.023438 6.742188 C 27.023438 6.824219 27.003906 6.898438 26.96875 6.96875 C 26.929688 7.039062 26.878906 7.097656 26.8125 7.144531 Z M 26.8125 7.144531 " fill-opacity="1" fill-rule="nonzero"/></g></svg>